<mxfile host="app.diagrams.net" modified="2024-02-03T08:11:18.492Z" agent="Mozilla/5.0 (Macintosh; Intel Mac OS X 10_15_7) AppleWebKit/537.36 (KHTML, like Gecko) Chrome/121.0.0.0 Safari/537.36" version="23.1.1" etag="q-IN8t72J27rzoe1DeNd" type="github">
  <diagram name="페이지-1" id="Fl00OpEKiXr94IGu3Lhy">
    <mxGraphModel>
      <root>
        <mxCell id="0" />
        <mxCell id="1" parent="0" />
      </root>
    </mxGraphModel>
  </diagram>
</mxfile>
